<?xml version="1.0" encoding="utf-8"?>
<!-- Generator: Adobe Illustrator 22.0.1, SVG Export Plug-In . SVG Version: 6.00 Build 0)  -->
<svg version="1.1" id="Layer_1" xmlns="http://www.w3.org/2000/svg" xmlns:xlink="http://www.w3.org/1999/xlink" x="0px" y="0px"
	 viewBox="0 0 413.1 106.9" style="enable-background:new 0 0 413.1 106.9;" xml:space="preserve">
<g id="Layer_2_1_">
	<g id="Layer_1-2">
		<circle style="fill: #00A8E4;" cx="51.6" cy="53.5" r="51.6"/>
		<path style="opacity:0.5;fill:#FFFFFF;enable-background:new;" d="M51.6,11.3c-23.3,0-42.2,18.9-42.2,42.2s18.9,42.2,42.2,42.2s42.2-18.9,42.2-42.2l0,0
			C93.8,30.2,74.9,11.3,51.6,11.3C51.6,11.3,51.6,11.3,51.6,11.3z M51.7,92.7c-21.5,0-39-17.5-39-39s17.5-39,39-39s39,17.5,39,39
			S73.2,92.7,51.7,92.7L51.7,92.7z"/>
		<path style="fill:#FFFFFF;" d="M77.8,55.7c0-0.3-0.1-0.5-0.1-0.8c-0.5-3.1-1.3-6.1-2.5-9c-2.1-4.7-8.6-11.2-8.8-11.4L27.8,0l-0.2,3.4
			c0,0.1-0.8,12.8-1.1,26.5c-0.4,18.6,0.4,30.2,2.3,34.6c2.2,5,5.5,9.5,9.6,13l0.2,0.2l35.5,29.3C74.1,106.9,79.5,69.3,77.8,55.7z
			 M51.2,53.3c4.2-1.7,8.9,0.3,10.6,4.4c1.7,4.1-0.3,8.8-4.4,10.5c0,0,0,0-0.1,0c-4.2,1.7-8.9-0.3-10.6-4.4
			C45.1,59.8,47,55,51.2,53.3C51.2,53.3,51.2,53.3,51.2,53.3z M31.9,36.4c0.3-9.4,1-18.5,1.4-21.9l23.2,19.2
			c0.2,0.2,3.4,2.7,4.7,3.7l1.6,1.2c-5.5-2.3-9.8-2.7-17.3,0.2s-11.4,8.6-13.8,14.4l0,0C32,50.5,31.5,49.6,31.9,36.4z"/>
		<path style="fill:#FFFFFF;" d="M194.9,90.3l-27.5-50.3v50.3h-13.9V19h18.1l27,50.5V19h13.8v71.3H194.9z"/>
		<path style="fill:#FFFFFF;" d="M267,77.5c0,2.8,0.5,3.9,3,3.9c1,0,2.1-0.2,3.1-0.6l0.4,8.6c-3,1.3-6.2,1.9-9.5,2c-5.9,0-9.4-1.7-10.5-6.5
			c-3.2,4.2-8.2,6.6-15.3,6.6c-12.8,0-15.3-8.6-15.3-13.7c0-15.7,16.3-18,29.5-17.9V58c0-5.8-0.8-9.4-7.3-9.4
			c-4.9,0-6.8,2.1-7.8,7.1l-12.6-2.5c1.6-9.6,7.7-15.4,21.7-15.4c13.7,0,20.6,5.3,20.6,18.1V77.5z M252.5,68.5h-2.4
			c-7.1,0.2-12.2,1.6-12.2,6.8c0,3,1.3,5.6,6,5.6c3.2-0.1,6.2-1.2,8.6-3.3L252.5,68.5z"/>
		<path style="fill:#FFFFFF;" d="M295.4,90.3h-14.9V15.9h14.9V90.3z"/>
		<path style="fill:#FFFFFF;" d="M353.6,90.3h-12.4l-0.9-5l-0.3-0.1c-3.5,3.9-8.4,6.3-15.2,6.3c-12,0-20.2-7.4-20.2-25.8
			c0-20.6,11-27.8,21.7-27.8c5.7,0,9.8,1.3,13,4.3V15.9h14.3L353.6,90.3z M338.8,52.5c-2.4-1.8-5.3-2.8-8.3-2.8
			c-7.5,0-10.3,6.6-10.3,15.5c0,9.2,2.9,14.6,9.9,14.6c3.3-0.1,6.4-1.4,8.8-3.7V52.5z"/>
		<path style="fill:#FFFFFF;" d="M406.6,77.5c0,2.8,0.5,3.9,3.1,3.9c1,0,2.1-0.2,3-0.6l0.4,8.6c-3,1.3-6.2,1.9-9.5,2c-5.9,0-9.5-1.7-10.5-6.5
			c-3.3,4.2-8.2,6.6-15.3,6.6c-12.8,0-15.3-8.6-15.3-13.7c0-15.7,16.3-18,29.5-17.9V58c0-5.8-0.8-9.4-7.3-9.4
			c-4.9,0-6.8,2.1-7.8,7.1l-12.6-2.5c1.6-9.7,7.7-15.4,21.7-15.4c13.7,0,20.6,5.3,20.6,18.1L406.6,77.5z M392.1,68.5h-2.4
			c-7.1,0.2-12.2,1.6-12.2,6.8c0,3,1.3,5.6,6,5.6c3.2-0.1,6.2-1.2,8.6-3.3L392.1,68.5z"/>
	</g>
</g>
</svg>
