<?xml version="1.0" encoding="utf-8"?>
<!-- Generator: Adobe Illustrator 22.0.1, SVG Export Plug-In . SVG Version: 6.00 Build 0)  -->
<svg version="1.1" id="Layer_1" xmlns="http://www.w3.org/2000/svg" xmlns:xlink="http://www.w3.org/1999/xlink" x="0px" y="0px"
	 viewBox="0 0 103.2 106.9" style="enable-background:new 0 0 103.2 106.9;" xml:space="preserve">
<title>N_Enclosed_Full_White</title>
<circle style="fill:#00A8E4;" cx="51.6" cy="53.5" r="51.6"/>
<path style="opacity:0.5;fill:#FFFFFF;enable-background:new;" d="M51.6,11.3c-23.3,0-42.2,18.9-42.2,42.2s18.9,42.2,42.2,42.2s42.2-18.9,42.2-42.2l0,0
	C93.8,30.2,74.9,11.3,51.6,11.3C51.6,11.3,51.6,11.3,51.6,11.3z M51.7,92.7c-21.5,0-39-17.5-39-39s17.5-39,39-39s39,17.5,39,39
	S73.2,92.7,51.7,92.7L51.7,92.7z"/>
<path style="fill:#FFFFFF;" d="M77.8,55.7c0-0.3-0.1-0.5-0.1-0.8c-0.5-3.1-1.3-6.1-2.5-9c-2.1-4.7-8.6-11.2-8.8-11.4L27.8,0l-0.2,3.4
	c0,0.1-0.8,12.8-1.1,26.5c-0.4,18.6,0.4,30.2,2.3,34.6c2.2,5,5.5,9.5,9.6,13l0.2,0.2l35.5,29.3C74.1,106.9,79.5,69.3,77.8,55.7z
	 M51.2,53.3c4.2-1.7,8.9,0.3,10.6,4.4c1.7,4.1-0.3,8.8-4.4,10.5c0,0,0,0-0.1,0c-4.2,1.7-8.9-0.3-10.6-4.4C45.1,59.8,47,55,51.2,53.3
	C51.2,53.3,51.2,53.3,51.2,53.3z M31.9,36.4c0.3-9.4,1-18.5,1.4-21.9l23.2,19.2c0.2,0.2,3.4,2.7,4.7,3.7l1.6,1.2
	c-5.5-2.3-9.8-2.7-17.3,0.2s-11.4,8.6-13.8,14.4l0,0C32,50.5,31.5,49.6,31.9,36.4z"/>
</svg>
