<svg xmlns="http://www.w3.org/2000/svg" viewBox="0 0 123.23 41.88">
    <defs>
    </defs>
    <title>Nalda_FullMark_Dark</title>
    <g id="Layer_2" data-name="Layer 2">
        <g id="Layer_1-2" data-name="Layer 1"><circle style="fill: #10a6df;" cx="19.98" cy="20.86" r="19.98"/><path style="fill: #fff; opacity: 0.5;" d="M14.4,5.51a16.33,16.33,0,1,0,20.93,9.76A16.35,16.35,0,0,0,14.4,5.51ZM25.21,35.13a15.12,15.12,0,1,1,9-19.37A15.12,15.12,0,0,1,25.21,35.13Z"/><path
            style="fill: #fcfdff;"
            d="M29.49,18.09C27.2,11.82,12.33,0,12.33,0S8.52,18.62,10.8,24.89s16.76,17,16.76,17S31.35,23.22,29.49,18.09Zm-7.16,5.69a3.66,3.66,0,1,1,.46-5.16A3.65,3.65,0,0,1,22.33,23.78ZM17,12.77a8,8,0,0,0-4.6,4s.29-5.15.46-6.77.86-6.25.86-6.25,4.24,3.82,5.59,5.1c1.13,1.07,4.35,4.28,4.35,4.28A9.21,9.21,0,0,0,17,12.77Z"/><path style="fill: #fff;" d="M59.6,9.81h4.68l6.77,11.72V9.81h3.59v17.8h-4L63.19,14.93V27.61H59.6Z"/><path
            style="fill: #fff;"
            d="M76.28,24c0-3,2.79-4.19,6.77-4.19h1.47v-.52c0-1.54-.47-2.39-2.12-2.39a2,2,0,0,0-2.21,1.84H76.78c.22-3.08,2.66-4.45,5.85-4.45s5.45,1.29,5.45,4.83v8.49H84.57V26a4.44,4.44,0,0,1-3.93,1.84C78.27,27.88,76.28,26.74,76.28,24Zm8.24-.95V22H83.13c-2.09,0-3.31.44-3.31,1.84,0,.94.57,1.57,1.89,1.57C83.3,25.37,84.52,24.49,84.52,23.05Z"/><path style="fill: #fff;" d="M90.64,8.69h3.59V27.61H90.64Z"/><path
            style="fill: #fff;"
            d="M96.17,21.28v-.2c0-4.28,2.46-6.79,5.73-6.79a4.32,4.32,0,0,1,4.1,2.24V8.69h3.59V27.61H106V25.44a4.73,4.73,0,0,1-4.18,2.44C98.66,27.88,96.17,25.62,96.17,21.28Zm9.93-.12V21c0-2.59-1.14-3.91-3.11-3.91s-3.14,1.37-3.14,4v.2c0,2.59,1.25,3.86,3,3.86S106.1,23.8,106.1,21.16Z"/><path
            style="fill: #fff;"
            d="M111.43,24c0-3,2.79-4.19,6.77-4.19h1.47v-.52c0-1.54-.47-2.39-2.12-2.39a2,2,0,0,0-2.21,1.84h-3.41c.22-3.08,2.66-4.45,5.85-4.45s5.45,1.29,5.45,4.83v8.49h-3.51V26a4.44,4.44,0,0,1-3.93,1.84C113.42,27.88,111.43,26.74,111.43,24Zm8.24-.95V22h-1.4c-2.09,0-3.31.44-3.31,1.84,0,.94.58,1.57,1.9,1.57C118.45,25.37,119.67,24.49,119.67,23.05Z"/></g>
    </g>
</svg>
