<svg xmlns="http://www.w3.org/2000/svg" viewBox="0 0 47 32.05"><defs><style>.cls-1{fill:#353535;}</style></defs><title>cash-only_vector</title><g id="Layer_2" data-name="Layer 2"><g id="Layer_1-2" data-name="Layer 1"><path class="cls-1" d="M39,0a1.36,1.36,0,0,0-.29,0c-.27.08-25.48,6.38-25.48,6.38H1.07A1.16,1.16,0,0,0,0,7.48V31a1.11,1.11,0,0,0,1.07,1.07H45.93A1.11,1.11,0,0,0,47,31V7.48a1.11,1.11,0,0,0-1.07-1.07h-4.5S40,.75,40,.62A1.06,1.06,0,0,0,39,0Zm-.77,2.37,1,4H22ZM2.14,8.55H13a15,15,0,0,0,0,21.36H2.14Zm14.3,0H30.58a12.79,12.79,0,0,1,0,21.36H16.44a12.78,12.78,0,0,1,0-21.36ZM34,8.55h10.9V29.91H34A15,15,0,0,0,34,8.55ZM23.38,10.13a1.12,1.12,0,0,0-.95,1.09v.66A5.12,5.12,0,0,0,20.21,13a4,4,0,0,0-1.52,3,4.44,4.44,0,0,0,3.74,4.18v4.2a3,3,0,0,1-.85-.45,1.78,1.78,0,0,1-.75-1.52,1.11,1.11,0,0,0-1.07-1.08,1.12,1.12,0,0,0-1.07,1.08,4.07,4.07,0,0,0,1.56,3.21,5.11,5.11,0,0,0,2.18,1v.64a1.07,1.07,0,1,0,2.14,0v-.65a5.17,5.17,0,0,0,2.22-1.14,4,4,0,0,0,1.52-3,4.41,4.41,0,0,0-3.74-4.15V14.05a2.73,2.73,0,0,1,.85.44A1.81,1.81,0,0,1,26.17,16a1.11,1.11,0,0,0,1.07,1.09A1.12,1.12,0,0,0,28.31,16a4.09,4.09,0,0,0-1.56-3.22,5,5,0,0,0-2.18-1v-.63A1.12,1.12,0,0,0,23.38,10.13Zm-.95,4V18a2.23,2.23,0,0,1-1.6-2,2.06,2.06,0,0,1,.78-1.42A3,3,0,0,1,22.43,14.12Zm2.14,6.36a2.22,2.22,0,0,1,1.6,1.95,2,2,0,0,1-.78,1.4,2.87,2.87,0,0,1-.82.5Z"/></g></g></svg>