<svg xmlns="http://www.w3.org/2000/svg" viewBox="0 0 413.09 106.94"><defs><style>.cls-1{fill:#00a8e4;}.cls-2,.cls-3{fill:#fff;}.cls-2{opacity:0.5;}</style></defs><title>N_Enclosed_Full_White</title><g id="Layer_2" data-name="Layer 2"><g id="Layer_1-2" data-name="Layer 1"><circle class="cls-1" cx="51.59" cy="53.47" r="51.59"/><path class="cls-2" d="M51.59,11.29A42.18,42.18,0,1,0,93.77,53.47,42.17,42.17,0,0,0,51.59,11.29Zm.07,81.43a39,39,0,1,1,39-39A39,39,0,0,1,51.66,92.72Z"/><path class="cls-3" d="M77.76,55.74c0-.27-.06-.55-.1-.82a37.23,37.23,0,0,0-2.51-9c-2.06-4.7-8.61-11.23-8.81-11.44L27.81,0l-.23,3.42c0,.13-.83,12.8-1.11,26.52-.38,18.58.39,30.21,2.28,34.56a35.43,35.43,0,0,0,9.63,13l.16.15,35.53,29.27S79.51,69.28,77.76,55.74ZM51.23,53.31a8.17,8.17,0,0,1,10.64,4.41,8.06,8.06,0,0,1-4.44,10.56,8.17,8.17,0,0,1-10.64-4.41A8.06,8.06,0,0,1,51.23,53.31ZM31.89,36.38c.29-9.37,1-18.47,1.41-21.91L56.54,33.64c.21.21,3.37,2.66,4.66,3.73l1.6,1.2c-5.53-2.28-9.75-2.71-17.27.2S34.08,47.38,31.75,53.14h0C32,50.48,31.49,49.63,31.89,36.38Z"/><path class="cls-3" d="M194.85,90.28,167.36,39.93V90.28H153.47V19h18.12l27,50.54V19h13.79V90.28Z"/><path class="cls-3" d="M267,77.47c0,2.76.49,3.94,3,3.94a10.41,10.41,0,0,0,3.06-.59l.39,8.57a25.77,25.77,0,0,1-9.46,2c-5.91,0-9.45-1.67-10.54-6.5-3.25,4.24-8.18,6.6-15.27,6.6-12.81,0-15.27-8.57-15.27-13.69,0-15.67,16.26-18,29.46-17.94V58c0-5.81-.79-9.36-7.29-9.36-4.93,0-6.8,2.07-7.79,7.1L224.7,53.23c1.58-9.65,7.69-15.37,21.68-15.37C260.07,37.86,267,43.18,267,56Zm-14.48-9h-2.37c-7.09.2-12.22,1.58-12.22,6.8,0,3,1.29,5.62,6,5.62a13.21,13.21,0,0,0,8.58-3.35Z"/><path class="cls-3" d="M295.35,90.28H280.47V15.89h14.88Z"/><path class="cls-3" d="M353.58,90.28H341.16l-.88-5-.3-.09c-3.55,3.94-8.37,6.3-15.17,6.3-12,0-20.2-7.39-20.2-25.81,0-20.59,11-27.79,21.67-27.79,5.72,0,9.76,1.28,13,4.34V15.89h14.29ZM338.8,52.54a14.18,14.18,0,0,0-8.28-2.85c-7.49,0-10.34,6.6-10.34,15.47,0,9.16,2.85,14.58,9.85,14.58a13.49,13.49,0,0,0,8.77-3.65Z"/><path class="cls-3" d="M406.58,77.47c0,2.76.5,3.94,3.06,3.94a10.35,10.35,0,0,0,3.05-.59l.4,8.57a25.82,25.82,0,0,1-9.46,2c-5.91,0-9.46-1.67-10.54-6.5-3.26,4.24-8.18,6.6-15.28,6.6-12.8,0-15.27-8.57-15.27-13.69,0-15.67,16.26-18,29.46-17.94V58c0-5.81-.79-9.36-7.29-9.36-4.93,0-6.8,2.07-7.78,7.1l-12.61-2.47C365.89,43.58,372,37.86,386,37.86c13.7,0,20.59,5.32,20.59,18.13Zm-14.48-9h-2.36c-7.1.2-12.22,1.58-12.22,6.8,0,3,1.28,5.62,6,5.62a13.18,13.18,0,0,0,8.57-3.35Z"/></g></g></svg>
