<svg xmlns="http://www.w3.org/2000/svg" viewBox="0 0 37.99 37.99"><title>formal_vector</title><g id="Layer_2" data-name="Layer 2"><g id="Layer_1-2" data-name="Layer 1"><path d="M12.42,0a.85.85,0,0,0-.6.35l-2,2.85L.51,7.42a.86.86,0,0,0-.47,1L8.67,37.37A.86.86,0,0,0,9.5,38h19a.87.87,0,0,0,.83-.62l7.62-25.49a.87.87,0,0,0-.58-1.08.88.88,0,0,0-1.08.58h0L27.86,36.27H20.41l11-18.13a.85.85,0,0,0,0-.87L30.11,15l2.27-1.29a.87.87,0,0,0,.35-1.12L29.42,5.65,36.78,9a.88.88,0,0,0,1.14-.44.86.86,0,0,0-.44-1.14h0L28.21,3.19l-2-2.83A.87.87,0,0,0,25.34,0,.85.85,0,0,0,25,.15l-6,4-6-4A.89.89,0,0,0,12.42,0Zm.31,2,5,3.3L15.5,7.81l-4-4Zm12.53,0L26.5,3.79l-4,4L20.3,5.35ZM8.56,5.65l-3.3,6.94a.87.87,0,0,0,.35,1.12L7.88,15l-1.3,2.27a.87.87,0,0,0,0,.87l11,18.13H10.13L1.9,8.69Zm1.56.76,6.55,25L8.34,17.69l1.47-2.58a.88.88,0,0,0-.33-1.18L7.16,12.6Zm17.75,0,3,6.19-2.32,1.33a.87.87,0,0,0-.33,1.18l1.47,2.58L21.32,31.43ZM19,6.49,21.8,9.64A.87.87,0,0,0,23,9.72l0,0L26,6.74,19,33.47,12,6.74l2.92,2.94a.86.86,0,0,0,1.22,0,.08.08,0,0,0,0,0Z"/></g></g></svg>