<svg xmlns="http://www.w3.org/2000/svg" viewBox="0 0 38 37.05"><defs><style>.cls-1{fill:#353535;}</style></defs><title>outdoor-seating_vector</title><g id="Layer_2" data-name="Layer 2"><g id="Layer_1-2" data-name="Layer 1"><path class="cls-1" d="M1,8.73H18V20.54H6.16V22.6H18V34.92h-4.1V37H24.14V34.92H20V22.6H31.84V20.54H20V8.73H36.46a1,1,0,0,0,1-.84,1,1,0,0,0-.64-1.15L19.37.07a1.08,1.08,0,0,0-.73,0L.67,6.74a1,1,0,0,0,.36,2ZM19,2.12,30.9,6.68H6.74Z"/><path class="cls-1" d="M0,36.9l2.05.15.53-7.18,6.73-.07L9.76,37l2.05-.13-.57-9.19-8.5.09L3,24.17a9.5,9.5,0,0,0-.1-2.2L2,16.78l-2,.34.87,5.19A7.52,7.52,0,0,1,1,24Z"/><path class="cls-1" d="M37.12,22.31,38,17.12l-2-.34L35.1,22a9,9,0,0,0-.1,2.2l.27,3.64-8.5-.09-.58,9.19,2,.13.46-7.24,6.72.07L36,37.05l2-.15L37.05,24A7,7,0,0,1,37.12,22.31Z"/></g></g></svg>