<svg xmlns="http://www.w3.org/2000/svg" viewBox="0 0 37 37"><defs><style>.cls-1{fill:#353535;}</style></defs><title>parking_vector</title><g id="Layer_2" data-name="Layer 2"><g id="Layer_1-2" data-name="Layer 1"><path class="cls-1" d="M30,37H7a7,7,0,0,1-7-7V7A7,7,0,0,1,7,0H30a7,7,0,0,1,7,7V30A7,7,0,0,1,30,37ZM7,2A5,5,0,0,0,2,7V30a5,5,0,0,0,5,5H30a5,5,0,0,0,5-5V7a5,5,0,0,0-5-5Z"/><path class="cls-1" d="M13.18,10.16h5.73a9.94,9.94,0,0,1,3.1.41,4.83,4.83,0,0,1,1.91,1.12,3.79,3.79,0,0,1,1,1.61,6.74,6.74,0,0,1,.28,1.91,7.63,7.63,0,0,1-.28,2.05,4.06,4.06,0,0,1-1,1.7A4.91,4.91,0,0,1,22,20.12a9.11,9.11,0,0,1-3,.43h-3v6.17H13.18Zm5.71,8.05A6.06,6.06,0,0,0,20.64,18a2.65,2.65,0,0,0,1.08-.59,2.16,2.16,0,0,0,.55-.92,4.5,4.5,0,0,0,.15-1.21,4,4,0,0,0-.17-1.21,1.76,1.76,0,0,0-.56-.87,2.86,2.86,0,0,0-1.09-.54,7,7,0,0,0-1.73-.18H15.94v5.73Z"/></g></g></svg>