<svg xmlns="http://www.w3.org/2000/svg" viewBox="0 0 40 40"><defs><style>.cls-1{fill:#353535;}</style></defs><title>reservation_vector</title><g id="Layer_2" data-name="Layer 2"><g id="Layer_1-2" data-name="Layer 1"><path class="cls-1" d="M36.67,5.33H36V2a2,2,0,0,0-2-2H32.67a2,2,0,0,0-2,2V5.33H9.33V2a2,2,0,0,0-2-2H6A2,2,0,0,0,4,2V5.33H3.33A3.34,3.34,0,0,0,0,8.67v28A3.34,3.34,0,0,0,3.33,40H36.67A3.34,3.34,0,0,0,40,36.67v-28A3.34,3.34,0,0,0,36.67,5.33ZM32,2a.67.67,0,0,1,.67-.67H34a.67.67,0,0,1,.67.67V8.67a.67.67,0,0,1-.67.66H32.67A.67.67,0,0,1,32,8.67V2ZM5.33,2A.67.67,0,0,1,6,1.33H7.33A.67.67,0,0,1,8,2V8.67a.67.67,0,0,1-.67.66H6a.67.67,0,0,1-.67-.66V2Zm-2,4.67H4v2a2,2,0,0,0,2,2H7.33a2,2,0,0,0,2-2v-2H30.67v2a2,2,0,0,0,2,2H34a2,2,0,0,0,2-2v-2h.67a2,2,0,0,1,2,2V16H1.33V8.67A2,2,0,0,1,3.33,6.67Zm33.34,32H3.33a2,2,0,0,1-2-2V17.33H38.67V36.67A2,2,0,0,1,36.67,38.67Z"/><path class="cls-1" d="M12.67,14H27.33a.67.67,0,0,0,.67-.67v-4a.66.66,0,0,0-.67-.66H12.67a.66.66,0,0,0-.67.66v4A.67.67,0,0,0,12.67,14Zm.66-4H26.67v2.67H13.33Z"/><path class="cls-1" d="M8.67,19.33h-4A.67.67,0,0,0,4,20v3.33a.67.67,0,0,0,.67.67h4a.66.66,0,0,0,.66-.67V20A.66.66,0,0,0,8.67,19.33ZM8,22.67H5.33v-2H8Z"/><path class="cls-1" d="M17.33,19.33h-4a.66.66,0,0,0-.66.67v3.33a.66.66,0,0,0,.66.67h4a.67.67,0,0,0,.67-.67V20A.67.67,0,0,0,17.33,19.33Zm-.66,3.34H14v-2h2.67Z"/><path class="cls-1" d="M22.67,24h4a.66.66,0,0,0,.66-.67V20a.66.66,0,0,0-.66-.67h-4A.67.67,0,0,0,22,20v3.33A.67.67,0,0,0,22.67,24Zm.66-3.33H26v2H23.33Z"/><path class="cls-1" d="M35.33,19.33h-4a.66.66,0,0,0-.66.67v3.33a.66.66,0,0,0,.66.67h4a.67.67,0,0,0,.67-.67V20A.67.67,0,0,0,35.33,19.33Zm-.66,3.34H32v-2h2.67Z"/><path class="cls-1" d="M8.67,26h-4a.67.67,0,0,0-.67.67V30a.67.67,0,0,0,.67.67h4A.66.66,0,0,0,9.33,30V26.67A.66.66,0,0,0,8.67,26ZM8,29.33H5.33v-2H8Z"/><path class="cls-1" d="M17.33,26h-4a.66.66,0,0,0-.66.67V30a.66.66,0,0,0,.66.67h4A.67.67,0,0,0,18,30V26.67A.67.67,0,0,0,17.33,26Zm-.66,3.33H14v-2h2.67Z"/><path class="cls-1" d="M22.67,30.67h4a.66.66,0,0,0,.66-.67V26.67a.66.66,0,0,0-.66-.67h-4a.67.67,0,0,0-.67.67V30A.67.67,0,0,0,22.67,30.67Zm.66-3.34H26v2H23.33Z"/><path class="cls-1" d="M35.33,26h-4a.66.66,0,0,0-.66.67V30a.66.66,0,0,0,.66.67h4A.67.67,0,0,0,36,30V26.67A.67.67,0,0,0,35.33,26Zm-.66,3.33H32v-2h2.67Z"/><path class="cls-1" d="M8.67,32.67h-4a.66.66,0,0,0-.67.66v3.34a.66.66,0,0,0,.67.66h4a.65.65,0,0,0,.66-.66V33.33A.65.65,0,0,0,8.67,32.67ZM8,36H5.33V34H8Z"/><path class="cls-1" d="M17.33,32.67h-4a.65.65,0,0,0-.66.66v3.34a.65.65,0,0,0,.66.66h4a.66.66,0,0,0,.67-.66V33.33A.66.66,0,0,0,17.33,32.67ZM16.67,36H14V34h2.67Z"/><path class="cls-1" d="M24,35.68,22.47,34.2l-.94.94,2,2a.67.67,0,0,0,.47.19h0a.64.64,0,0,0,.48-.24l3.34-4-1-.85Z"/><path class="cls-1" d="M32,35.68,30.47,34.2l-.94.94,2,2a.67.67,0,0,0,.47.19h0a.64.64,0,0,0,.48-.24l3.34-4-1-.85Z"/></g></g></svg>