<svg xmlns="http://www.w3.org/2000/svg" viewBox="0 0 43.99 44"><defs><style>.cls-1{fill:#353535;}</style></defs><title>waiter_vector</title><g id="Layer_2" data-name="Layer 2"><g id="Layer_1-2" data-name="Layer 1"><path class="cls-1" d="M43.94,38.16a.69.69,0,0,0-.89-.38L31.82,42.36a3.36,3.36,0,0,1-3.44-.52L18.83,32l2.44-2.28,8,6.58a.68.68,0,0,0,.43.15.73.73,0,0,0,.38-.11l13.62-8.94a.69.69,0,1,0-.75-1.15l-13.2,8.66-7.68-6.33s0-.06,0-.09c-1.59-5.58.86-7.61.95-7.69a.52.52,0,0,0,.2-.24,1.31,1.31,0,0,0,0-1.36,1.5,1.5,0,0,0-.89-.62h6.57a.69.69,0,1,0,0-1.38h-1a13.09,13.09,0,0,0-11-12.56,2.75,2.75,0,1,0-4,0,13.08,13.08,0,0,0-11,12.56h-1a.69.69,0,0,0,0,1.38h4a2.27,2.27,0,0,0-.86,1.15.68.68,0,0,0,.2.71l13.37,12,.06.05,10,10.31A4.76,4.76,0,0,0,30.52,44a4.87,4.87,0,0,0,1.81-.37l11.24-4.58A.67.67,0,0,0,43.94,38.16ZM14.78,1.37A1.38,1.38,0,1,1,13.4,2.75,1.37,1.37,0,0,1,14.78,1.37ZM3.1,17.18a11.69,11.69,0,0,1,23.36,0Zm17.72,1.38c-1.93.57-3.69,3.31-4.12,4a2.07,2.07,0,0,1-1.2.34c-1.61,0-8.26-4.29-8.39-4.35ZM17.78,31,5.34,19.77a.65.65,0,0,1,.46-.18,2.11,2.11,0,0,1,1,.35l4.52,2.74a8.1,8.1,0,0,0,4.19,1.61,3.44,3.44,0,0,0,2.14-.7.65.65,0,0,0,.17-.2c.79-1.34,2.47-3.5,3.66-3.57a1.84,1.84,0,0,1,.46.06c-.7.69-2.72,3.22-1.33,8.56L17.85,31Z"/><path class="cls-1" d="M10.5,9a9,9,0,0,0-4.35,5.52.68.68,0,0,0,.48.84l.18,0a.71.71,0,0,0,.67-.51,7.62,7.62,0,0,1,3.68-4.67.68.68,0,0,0,.28-.93A.69.69,0,0,0,10.5,9Z"/><circle class="cls-1" cx="13.4" cy="8.59" r="0.69"/></g></g></svg>