<svg xmlns="http://www.w3.org/2000/svg" viewBox="0 0 48.7 38"><defs><style>.cls-1{fill:#353535;}</style></defs><title>wifi_vector</title><g id="Layer_2" data-name="Layer 2"><g id="Layer_1-2" data-name="Layer 1"><path class="cls-1" d="M0,8.63A3,3,0,0,1,1.27,7.16,40,40,0,0,1,18.41.44,40.34,40.34,0,0,1,47.7,7.35a2.74,2.74,0,0,1,1,1.28v.85a2,2,0,0,1-1.94,1.46,2.1,2.1,0,0,1-1.22-.45A35.31,35.31,0,0,0,32.72,4.76,36.54,36.54,0,0,0,3.31,10.38,2.42,2.42,0,0,1,2,10.93,2,2,0,0,1,0,9.48Z"/><path class="cls-1" d="M40.2,18.34a1.81,1.81,0,0,1-1.15-.4,25.54,25.54,0,0,0-28-.9c-.49.29-1,.62-1.43.93a1.91,1.91,0,0,1-2.72-.46,1.86,1.86,0,0,1,.56-2.66,28.56,28.56,0,0,1,12.32-5,29,29,0,0,1,21,4.66,5.9,5.9,0,0,1,.7.5,1.89,1.89,0,0,1-1.27,3.32Z"/><path class="cls-1" d="M33.64,25.75a1.77,1.77,0,0,1-1.1-.36,14.21,14.21,0,0,0-9.35-2.5,13.79,13.79,0,0,0-6.9,2.42,2,2,0,0,1-1.88.33A1.89,1.89,0,0,1,14,22.27a17.14,17.14,0,0,1,6.21-2.74,18.1,18.1,0,0,1,14.45,2.7,1.9,1.9,0,0,1-1,3.52Z"/><path class="cls-1" d="M24.39,28.5a4.75,4.75,0,1,1-4.79,4.69h0A4.75,4.75,0,0,1,24.39,28.5Z"/></g></g></svg>