<svg xmlns="http://www.w3.org/2000/svg" viewBox="0 0 30.06 26.69"><title>wink_vector</title><g id="Layer_2" data-name="Layer 2"><g id="Layer_1-2" data-name="Layer 1"><path d="M15,26.69A16,16,0,0,1,.15,16.39,2.27,2.27,0,1,1,4.4,14.81a11.35,11.35,0,0,0,21.27,0,2.27,2.27,0,1,1,4.26,1.58A16,16,0,0,1,15,26.69Z"/><path d="M28.18,6.26a1.54,1.54,0,0,1-1.42-1A1.9,1.9,0,0,0,25,4.09,1.94,1.94,0,0,0,23.26,5.3a1.5,1.5,0,0,1-2.8-1A4.94,4.94,0,0,1,25,1.08a4.87,4.87,0,0,1,4.54,3.17,1.46,1.46,0,0,1-.87,1.92A2.29,2.29,0,0,1,28.18,6.26Z"/><circle cx="5.74" cy="3.38" r="3.38"/></g></g></svg>